<svg xmlns="http://www.w3.org/2000/svg" viewBox="0 0 512 512" width="512" height="512">
  <defs>
    <linearGradient id="bg" x1="0%" y1="0%" x2="100%" y2="100%">
      <stop offset="0%" stop-color="#0B1020" />
      <stop offset="100%" stop-color="#0f1525" />
    </linearGradient>
    <radialGradient id="glow" cx="50%" cy="50%" r="35%">
      <stop offset="0%" stop-color="#7C3AED" stop-opacity="0.12" />
      <stop offset="100%" stop-color="#0B1020" stop-opacity="0" />
    </radialGradient>
  </defs>
  <rect width="512" height="512" fill="url(#bg)" rx="64" />
  <rect width="512" height="512" fill="url(#glow)" rx="64" />
  <g>
    <circle cx="474.0" cy="256.0" r="1.5" fill="#3B82F6" opacity="0.15" />
    <circle cx="472.1" cy="294.1" r="1.5" fill="#3B82F6" opacity="0.15" />
    <circle cx="458.2" cy="329.6" r="1.5" fill="#3B82F6" opacity="0.15" />
    <circle cx="448.4" cy="367.1" r="1.5" fill="#3B82F6" opacity="0.15" />
    <circle cx="418.9" cy="392.7" r="1.5" fill="#3B82F6" opacity="0.15" />
    <circle cx="400.3" cy="428.0" r="1.5" fill="#3B82F6" opacity="0.15" />
    <circle cx="361.2" cy="438.3" r="1.5" fill="#3B82F6" opacity="0.15" />
    <circle cx="333.4" cy="468.7" r="1.5" fill="#3B82F6" opacity="0.15" />
    <circle cx="292.3" cy="461.8" r="1.5" fill="#3B82F6" opacity="0.15" />
    <circle cx="256.0" cy="483.6" r="1.5" fill="#3B82F6" opacity="0.15" />
    <circle cx="219.9" cy="461.0" r="1.5" fill="#3B82F6" opacity="0.15" />
    <circle cx="178.0" cy="470.2" r="1.5" fill="#3B82F6" opacity="0.15" />
    <circle cx="152.0" cy="436.2" r="1.5" fill="#3B82F6" opacity="0.15" />
    <circle cx="109.7" cy="430.4" r="1.5" fill="#3B82F6" opacity="0.15" />
    <circle cx="96.0" cy="390.2" r="1.5" fill="#3B82F6" opacity="0.15" />
    <circle cx="59.8" cy="369.3" r="1.5" fill="#3B82F6" opacity="0.15" />
    <circle cx="58.4" cy="327.9" r="1.5" fill="#3B82F6" opacity="0.15" />
    <circle cx="34.7" cy="295.0" r="1.5" fill="#3B82F6" opacity="0.15" />
    <circle cx="43.6" cy="256.0" r="1.5" fill="#3B82F6" opacity="0.15" />
    <circle cx="37.0" cy="217.4" r="1.5" fill="#3B82F6" opacity="0.15" />
    <circle cx="54.0" cy="182.5" r="1.5" fill="#3B82F6" opacity="0.15" />
    <circle cx="65.8" cy="146.2" r="1.5" fill="#3B82F6" opacity="0.15" />
    <circle cx="89.2" cy="116.0" r="1.5" fill="#3B82F6" opacity="0.15" />
    <circle cx="116.6" cy="89.9" r="1.5" fill="#3B82F6" opacity="0.15" />
    <circle cx="145.7" cy="65.0" r="1.5" fill="#3B82F6" opacity="0.15" />
    <circle cx="182.8" cy="54.8" r="1.5" fill="#3B82F6" opacity="0.15" />
    <circle cx="217.3" cy="36.3" r="1.5" fill="#3B82F6" opacity="0.15" />
    <circle cx="256.0" cy="44.3" r="1.5" fill="#3B82F6" opacity="0.15" />
    <circle cx="295.1" cy="34.1" r="1.5" fill="#3B82F6" opacity="0.15" />
    <circle cx="327.7" cy="58.9" r="1.5" fill="#3B82F6" opacity="0.15" />
    <circle cx="369.5" cy="59.5" r="1.5" fill="#3B82F6" opacity="0.15" />
    <circle cx="390.0" cy="96.3" r="1.5" fill="#3B82F6" opacity="0.15" />
    <circle cx="430.5" cy="109.5" r="1.5" fill="#3B82F6" opacity="0.15" />
    <circle cx="436.1" cy="152.0" r="1.5" fill="#3B82F6" opacity="0.15" />
    <circle cx="470.2" cy="178.0" r="1.5" fill="#3B82F6" opacity="0.15" />
    <circle cx="461.1" cy="219.8" r="1.5" fill="#3B82F6" opacity="0.15" />
  </g>
  <g>
    <path d="M 321.0,256.0 C 429.3,268.9 432.6,311.4 443.3,306.2 C 436.6,296.4 316.0,305.6 312.3,288.5 Q 308.0,286.0 334.5,277.0 Q 308.0,226.0 321.0,256.0" fill="none" stroke="#000" stroke-width="23" opacity="0.35" stroke-linecap="round" stroke-linejoin="round" transform="translate(3,4)" />
    <path d="M 321.0,256.0 C 429.3,268.9 432.6,311.4 443.3,306.2 C 436.6,296.4 316.0,305.6 312.3,288.5 Q 308.0,286.0 334.5,277.0 Q 308.0,226.0 321.0,256.0" fill="none" stroke="#7C3AED" stroke-width="18" stroke-linecap="round" stroke-linejoin="round" />
    <path d="M 321.0,256.0 C 429.3,268.9 432.6,311.4 443.3,306.2 C 436.6,296.4 316.0,305.6 312.3,288.5 Q 308.0,286.0 334.5,277.0 Q 308.0,226.0 321.0,256.0" fill="none" stroke="rgba(255,255,255,0.12)" stroke-width="4.5" stroke-linecap="round" stroke-linejoin="round" transform="translate(-1,-1)" />
    <path d="M 312.3,288.5 C 399.6,353.9 394.3,405.2 406.1,406.1 C 405.2,394.3 283.1,328.9 288.5,312.3 Q 286.0,308.0 313.5,313.5 Q 316.0,256.0 312.3,288.5" fill="none" stroke="#000" stroke-width="27" opacity="0.35" stroke-linecap="round" stroke-linejoin="round" transform="translate(3,4)" />
    <path d="M 312.3,288.5 C 399.6,353.9 394.3,405.2 406.1,406.1 C 405.2,394.3 283.1,328.9 288.5,312.3 Q 286.0,308.0 313.5,313.5 Q 316.0,256.0 312.3,288.5" fill="none" stroke="#3B82F6" stroke-width="22" stroke-linecap="round" stroke-linejoin="round" />
    <path d="M 312.3,288.5 C 399.6,353.9 394.3,405.2 406.1,406.1 C 405.2,394.3 283.1,328.9 288.5,312.3 Q 286.0,308.0 313.5,313.5 Q 316.0,256.0 312.3,288.5" fill="none" stroke="rgba(255,255,255,0.12)" stroke-width="5.5" stroke-linecap="round" stroke-linejoin="round" transform="translate(-1,-1)" />
    <path d="M 288.5,312.3 C 331.4,412.5 289.9,412.7 299.8,419.3 C 304.9,408.7 243.1,332.7 256.0,321.0 Q 256.0,316.0 277.0,334.5 Q 308.0,286.0 288.5,312.3" fill="none" stroke="#000" stroke-width="31" opacity="0.35" stroke-linecap="round" stroke-linejoin="round" transform="translate(3,4)" />
    <path d="M 288.5,312.3 C 331.4,412.5 289.9,412.7 299.8,419.3 C 304.9,408.7 243.1,332.7 256.0,321.0 Q 256.0,316.0 277.0,334.5 Q 308.0,286.0 288.5,312.3" fill="none" stroke="#00F5D4" stroke-width="26" stroke-linecap="round" stroke-linejoin="round" />
    <path d="M 288.5,312.3 C 331.4,412.5 289.9,412.7 299.8,419.3 C 304.9,408.7 243.1,332.7 256.0,321.0 Q 256.0,316.0 277.0,334.5 Q 308.0,286.0 288.5,312.3" fill="none" stroke="rgba(255,255,255,0.12)" stroke-width="6.5" stroke-linecap="round" stroke-linejoin="round" transform="translate(-1,-1)" />
    <path d="M 256.0,321.0 C 243.1,429.3 208.9,401.6 214.1,412.3 C 223.9,405.6 206.4,316.0 223.5,312.3 Q 226.0,308.0 235.0,334.5 Q 286.0,308.0 256.0,321.0" fill="none" stroke="#000" stroke-width="23" opacity="0.35" stroke-linecap="round" stroke-linejoin="round" transform="translate(3,4)" />
    <path d="M 256.0,321.0 C 243.1,429.3 208.9,401.6 214.1,412.3 C 223.9,405.6 206.4,316.0 223.5,312.3 Q 226.0,308.0 235.0,334.5 Q 286.0,308.0 256.0,321.0" fill="none" stroke="#7C3AED" stroke-width="18" stroke-linecap="round" stroke-linejoin="round" />
    <path d="M 256.0,321.0 C 243.1,429.3 208.9,401.6 214.1,412.3 C 223.9,405.6 206.4,316.0 223.5,312.3 Q 226.0,308.0 235.0,334.5 Q 286.0,308.0 256.0,321.0" fill="none" stroke="rgba(255,255,255,0.12)" stroke-width="4.5" stroke-linecap="round" stroke-linejoin="round" transform="translate(-1,-1)" />
    <path d="M 223.5,312.3 C 158.1,399.6 110.6,390.4 109.7,402.3 C 121.6,401.4 183.1,283.1 199.7,288.5 Q 204.0,286.0 198.5,313.5 Q 256.0,316.0 223.5,312.3" fill="none" stroke="#000" stroke-width="27" opacity="0.35" stroke-linecap="round" stroke-linejoin="round" transform="translate(3,4)" />
    <path d="M 223.5,312.3 C 158.1,399.6 110.6,390.4 109.7,402.3 C 121.6,401.4 183.1,283.1 199.7,288.5 Q 204.0,286.0 198.5,313.5 Q 256.0,316.0 223.5,312.3" fill="none" stroke="#3B82F6" stroke-width="22" stroke-linecap="round" stroke-linejoin="round" />
    <path d="M 223.5,312.3 C 158.1,399.6 110.6,390.4 109.7,402.3 C 121.6,401.4 183.1,283.1 199.7,288.5 Q 204.0,286.0 198.5,313.5 Q 256.0,316.0 223.5,312.3" fill="none" stroke="rgba(255,255,255,0.12)" stroke-width="5.5" stroke-linecap="round" stroke-linejoin="round" transform="translate(-1,-1)" />
    <path d="M 199.7,288.5 C 99.5,331.4 67.0,298.6 60.4,308.4 C 71.0,313.6 179.3,243.1 191.0,256.0 Q 196.0,256.0 177.5,277.0 Q 226.0,308.0 199.7,288.5" fill="none" stroke="#000" stroke-width="31" opacity="0.35" stroke-linecap="round" stroke-linejoin="round" transform="translate(3,4)" />
    <path d="M 199.7,288.5 C 99.5,331.4 67.0,298.6 60.4,308.4 C 71.0,313.6 179.3,243.1 191.0,256.0 Q 196.0,256.0 177.5,277.0 Q 226.0,308.0 199.7,288.5" fill="none" stroke="#00F5D4" stroke-width="26" stroke-linecap="round" stroke-linejoin="round" />
    <path d="M 199.7,288.5 C 99.5,331.4 67.0,298.6 60.4,308.4 C 71.0,313.6 179.3,243.1 191.0,256.0 Q 196.0,256.0 177.5,277.0 Q 226.0,308.0 199.7,288.5" fill="none" stroke="rgba(255,255,255,0.12)" stroke-width="6.5" stroke-linecap="round" stroke-linejoin="round" transform="translate(-1,-1)" />
    <path d="M 191.0,256.0 C 82.7,243.1 113.5,209.8 102.8,214.9 C 109.5,224.8 196.0,206.4 199.7,223.5 Q 204.0,226.0 177.5,235.0 Q 204.0,286.0 191.0,256.0" fill="none" stroke="#000" stroke-width="23" opacity="0.35" stroke-linecap="round" stroke-linejoin="round" transform="translate(3,4)" />
    <path d="M 191.0,256.0 C 82.7,243.1 113.5,209.8 102.8,214.9 C 109.5,224.8 196.0,206.4 199.7,223.5 Q 204.0,226.0 177.5,235.0 Q 204.0,286.0 191.0,256.0" fill="none" stroke="#7C3AED" stroke-width="18" stroke-linecap="round" stroke-linejoin="round" />
    <path d="M 191.0,256.0 C 82.7,243.1 113.5,209.8 102.8,214.9 C 109.5,224.8 196.0,206.4 199.7,223.5 Q 204.0,226.0 177.5,235.0 Q 204.0,286.0 191.0,256.0" fill="none" stroke="rgba(255,255,255,0.12)" stroke-width="4.5" stroke-linecap="round" stroke-linejoin="round" transform="translate(-1,-1)" />
    <path d="M 199.7,223.5 C 112.4,158.1 144.6,133.6 132.8,132.8 C 133.6,144.6 228.9,183.1 223.5,199.7 Q 226.0,204.0 198.5,198.5 Q 196.0,256.0 199.7,223.5" fill="none" stroke="#000" stroke-width="27" opacity="0.35" stroke-linecap="round" stroke-linejoin="round" transform="translate(3,4)" />
    <path d="M 199.7,223.5 C 112.4,158.1 144.6,133.6 132.8,132.8 C 133.6,144.6 228.9,183.1 223.5,199.7 Q 226.0,204.0 198.5,198.5 Q 196.0,256.0 199.7,223.5" fill="none" stroke="#3B82F6" stroke-width="22" stroke-linecap="round" stroke-linejoin="round" />
    <path d="M 199.7,223.5 C 112.4,158.1 144.6,133.6 132.8,132.8 C 133.6,144.6 228.9,183.1 223.5,199.7 Q 226.0,204.0 198.5,198.5 Q 196.0,256.0 199.7,223.5" fill="none" stroke="rgba(255,255,255,0.12)" stroke-width="5.5" stroke-linecap="round" stroke-linejoin="round" transform="translate(-1,-1)" />
    <path d="M 223.5,199.7 C 180.6,99.5 210.4,55.8 200.6,49.1 C 195.4,59.8 268.9,179.3 256.0,191.0 Q 256.0,196.0 235.0,177.5 Q 204.0,226.0 223.5,199.7" fill="none" stroke="#000" stroke-width="31" opacity="0.35" stroke-linecap="round" stroke-linejoin="round" transform="translate(3,4)" />
    <path d="M 223.5,199.7 C 180.6,99.5 210.4,55.8 200.6,49.1 C 195.4,59.8 268.9,179.3 256.0,191.0 Q 256.0,196.0 235.0,177.5 Q 204.0,226.0 223.5,199.7" fill="none" stroke="#00F5D4" stroke-width="26" stroke-linecap="round" stroke-linejoin="round" />
    <path d="M 223.5,199.7 C 180.6,99.5 210.4,55.8 200.6,49.1 C 195.4,59.8 268.9,179.3 256.0,191.0 Q 256.0,196.0 235.0,177.5 Q 204.0,226.0 223.5,199.7" fill="none" stroke="rgba(255,255,255,0.12)" stroke-width="6.5" stroke-linecap="round" stroke-linejoin="round" transform="translate(-1,-1)" />
    <path d="M 256.0,191.0 C 268.9,82.7 309.9,84.9 304.7,74.2 C 294.9,80.8 305.6,196.0 288.5,199.7 Q 286.0,204.0 277.0,177.5 Q 226.0,204.0 256.0,191.0" fill="none" stroke="#000" stroke-width="23" opacity="0.35" stroke-linecap="round" stroke-linejoin="round" transform="translate(3,4)" />
    <path d="M 256.0,191.0 C 268.9,82.7 309.9,84.9 304.7,74.2 C 294.9,80.8 305.6,196.0 288.5,199.7 Q 286.0,204.0 277.0,177.5 Q 226.0,204.0 256.0,191.0" fill="none" stroke="#7C3AED" stroke-width="18" stroke-linecap="round" stroke-linejoin="round" />
    <path d="M 256.0,191.0 C 268.9,82.7 309.9,84.9 304.7,74.2 C 294.9,80.8 305.6,196.0 288.5,199.7 Q 286.0,204.0 277.0,177.5 Q 226.0,204.0 256.0,191.0" fill="none" stroke="rgba(255,255,255,0.12)" stroke-width="4.5" stroke-linecap="round" stroke-linejoin="round" transform="translate(-1,-1)" />
    <path d="M 288.5,199.7 C 353.9,112.4 364.7,158.2 365.6,146.4 C 353.8,147.3 328.9,228.9 312.3,223.5 Q 308.0,226.0 313.5,198.5 Q 256.0,196.0 288.5,199.7" fill="none" stroke="#000" stroke-width="27" opacity="0.35" stroke-linecap="round" stroke-linejoin="round" transform="translate(3,4)" />
    <path d="M 288.5,199.7 C 353.9,112.4 364.7,158.2 365.6,146.4 C 353.8,147.3 328.9,228.9 312.3,223.5 Q 308.0,226.0 313.5,198.5 Q 256.0,196.0 288.5,199.7" fill="none" stroke="#3B82F6" stroke-width="22" stroke-linecap="round" stroke-linejoin="round" />
    <path d="M 288.5,199.7 C 353.9,112.4 364.7,158.2 365.6,146.4 C 353.8,147.3 328.9,228.9 312.3,223.5 Q 308.0,226.0 313.5,198.5 Q 256.0,196.0 288.5,199.7" fill="none" stroke="rgba(255,255,255,0.12)" stroke-width="5.5" stroke-linecap="round" stroke-linejoin="round" transform="translate(-1,-1)" />
    <path d="M 312.3,223.5 C 412.5,180.6 432.4,216.8 439.0,207.0 C 428.4,201.8 332.7,268.9 321.0,256.0 Q 316.0,256.0 334.5,235.0 Q 286.0,204.0 312.3,223.5" fill="none" stroke="#000" stroke-width="31" opacity="0.35" stroke-linecap="round" stroke-linejoin="round" transform="translate(3,4)" />
    <path d="M 312.3,223.5 C 412.5,180.6 432.4,216.8 439.0,207.0 C 428.4,201.8 332.7,268.9 321.0,256.0 Q 316.0,256.0 334.5,235.0 Q 286.0,204.0 312.3,223.5" fill="none" stroke="#00F5D4" stroke-width="26" stroke-linecap="round" stroke-linejoin="round" />
    <path d="M 312.3,223.5 C 412.5,180.6 432.4,216.8 439.0,207.0 C 428.4,201.8 332.7,268.9 321.0,256.0 Q 316.0,256.0 334.5,235.0 Q 286.0,204.0 312.3,223.5" fill="none" stroke="rgba(255,255,255,0.12)" stroke-width="6.5" stroke-linecap="round" stroke-linejoin="round" transform="translate(-1,-1)" />
  </g>
  <g>
    <circle cx="316.0" cy="256.0" r="3" fill="#7C3AED" opacity="0.4" />
    <circle cx="316.0" cy="256.0" r="1.5" fill="#00F5D4" opacity="0.6" />
    <circle cx="308.0" cy="286.0" r="3" fill="#7C3AED" opacity="0.4" />
    <circle cx="308.0" cy="286.0" r="1.5" fill="#00F5D4" opacity="0.6" />
    <circle cx="286.0" cy="308.0" r="3" fill="#7C3AED" opacity="0.4" />
    <circle cx="286.0" cy="308.0" r="1.5" fill="#00F5D4" opacity="0.6" />
    <circle cx="256.0" cy="316.0" r="3" fill="#7C3AED" opacity="0.4" />
    <circle cx="256.0" cy="316.0" r="1.5" fill="#00F5D4" opacity="0.6" />
    <circle cx="226.0" cy="308.0" r="3" fill="#7C3AED" opacity="0.4" />
    <circle cx="226.0" cy="308.0" r="1.5" fill="#00F5D4" opacity="0.6" />
    <circle cx="204.0" cy="286.0" r="3" fill="#7C3AED" opacity="0.4" />
    <circle cx="204.0" cy="286.0" r="1.5" fill="#00F5D4" opacity="0.6" />
    <circle cx="196.0" cy="256.0" r="3" fill="#7C3AED" opacity="0.4" />
    <circle cx="196.0" cy="256.0" r="1.5" fill="#00F5D4" opacity="0.6" />
    <circle cx="204.0" cy="226.0" r="3" fill="#7C3AED" opacity="0.4" />
    <circle cx="204.0" cy="226.0" r="1.5" fill="#00F5D4" opacity="0.6" />
    <circle cx="226.0" cy="204.0" r="3" fill="#7C3AED" opacity="0.4" />
    <circle cx="226.0" cy="204.0" r="1.5" fill="#00F5D4" opacity="0.6" />
    <circle cx="256.0" cy="196.0" r="3" fill="#7C3AED" opacity="0.4" />
    <circle cx="256.0" cy="196.0" r="1.5" fill="#00F5D4" opacity="0.6" />
    <circle cx="286.0" cy="204.0" r="3" fill="#7C3AED" opacity="0.4" />
    <circle cx="286.0" cy="204.0" r="1.5" fill="#00F5D4" opacity="0.6" />
    <circle cx="308.0" cy="226.0" r="3" fill="#7C3AED" opacity="0.4" />
    <circle cx="308.0" cy="226.0" r="1.5" fill="#00F5D4" opacity="0.6" />
  </g>
</svg>